HIERARCHY
ROOT root
{
	OFFSET 0.000000 0.000000 0.000000
	CHANNELS 6 Xposition Yposition Zposition Zrotation Yrotation Xrotation
	JOINT lhip
	{
		OFFSET 0.058581 -0.082280 -0.017664
		CHANNELS 3 Zrotation Yrotation Xrotation
		JOINT lknee
		{
			OFFSET 0.043451 -0.386469 0.008037
			CHANNELS 3 Zrotation Yrotation Xrotation
			JOINT lankle
			{
				OFFSET -0.014790 -0.426874 -0.037428
				CHANNELS 3 Zrotation Yrotation Xrotation
				JOINT ltoe
				{
					OFFSET 0.041054 -0.060286 0.122042
					CHANNELS 3 Zrotation Yrotation Xrotation
					End Site
					{
						OFFSET 0.000000 0.000000 0.000000
					}
				}
			}
		}
	}
	JOINT rhip
	{
		OFFSET -0.060310 -0.090513 -0.013543
		CHANNELS 3 Zrotation Yrotation Xrotation
		JOINT rknee
		{
			OFFSET -0.043257 -0.383688 -0.004843
			CHANNELS 3 Zrotation Yrotation Xrotation
			JOINT rankle
			{
				OFFSET 0.019056 -0.420046 -0.034562
				CHANNELS 3 Zrotation Yrotation Xrotation
				JOINT rtoe
				{
					OFFSET -0.034840 -0.062106 0.130323
					CHANNELS 3 Zrotation Yrotation Xrotation
					End Site
					{
						OFFSET 0.000000 0.000000 0.000000
					}
				}
			}
		}
	}
	JOINT lowerback
	{
		OFFSET 0.004439 0.124404 -0.038385
		CHANNELS 3 Zrotation Yrotation Xrotation
		JOINT upperback
		{
			OFFSET 0.004488 0.137956 0.026820
			CHANNELS 3 Zrotation Yrotation Xrotation
			JOINT chest
			{
				OFFSET -0.002265 0.056032 0.002855
				CHANNELS 3 Zrotation Yrotation Xrotation
				JOINT lowerneck
				{
					OFFSET -0.013390 0.211636 -0.033468
					CHANNELS 3 Zrotation Yrotation Xrotation
					JOINT upperneck
					{
						OFFSET 0.010113 0.088937 0.050410
						CHANNELS 3 Zrotation Yrotation Xrotation
						End Site
						{
							OFFSET 0.000000 0.000000 0.000000
						}
					}
				}
				JOINT lclavicle
				{
					OFFSET 0.071702 0.114000 -0.018898
					CHANNELS 3 Zrotation Yrotation Xrotation
					JOINT lshoulder
					{
						OFFSET 0.122921 0.045205 -0.019046
						CHANNELS 3 Zrotation Yrotation Xrotation
						JOINT lelbow
						{
							OFFSET 0.255332 -0.015649 -0.022946
							CHANNELS 3 Zrotation Yrotation Xrotation
							JOINT lwrist
							{
								OFFSET 0.265709 0.012698 -0.007375
								CHANNELS 3 Zrotation Yrotation Xrotation
								End Site
								{
									OFFSET 0.000000 0.000000 0.000000
								}
							}
						}
					}
				}
				JOINT rclavicle
				{
					OFFSET -0.082954 0.112472 -0.023707
					CHANNELS 3 Zrotation Yrotation Xrotation
					JOINT rshoulder
					{
						OFFSET -0.113228 0.046853 -0.008472
						CHANNELS 3 Zrotation Yrotation Xrotation
						JOINT relbow
						{
							OFFSET -0.260127 -0.014369 -0.031269
							CHANNELS 3 Zrotation Yrotation Xrotation
							JOINT rwrist
							{
								OFFSET -0.269108 0.006794 -0.006027
								CHANNELS 3 Zrotation Yrotation Xrotation
								End Site
								{
									OFFSET 0.000000 0.000000 0.000000
								}
							}
						}
					}
				}
			}
		}
	}
}
MOTION
Frames: 12
Frame Time: 0.033333
0.363741 0.170447 0.990425 87.503170 -0.543394 90.550111 6.680986 5.452212 6.639609 -4.050247 -1.169935 -6.946900 -0.666841 8.659352 -2.964077 0.000000 -0.000000 0.000000 -8.159140 -3.690611 2.090683 2.372516 -1.442530 -0.725156 5.019880 -4.918614 -5.567565 0.000000 -0.000000 0.000000 -5.185372 3.076849 -9.369600 2.097768 -1.354060 13.695210 0.167617 0.643269 -4.351611 4.520558 4.483161 6.022496 3.727190 -1.996701 0.756077 -26.733595 -1.426832 0.561161 -55.414393 -6.287005 18.227352 2.426177 -20.343842 9.395300 -4.090806 -14.141023 8.425191 29.913784 3.413896 7.363694 55.352567 4.920672 13.660725 -10.943460 26.010593 -8.420382 0.926422 9.299217 -7.576031 
0.363594 0.169565 0.990417 87.446894 -0.222807 90.584685 7.122454 5.480191 6.573886 -4.155542 -1.026822 -6.866427 -0.761525 8.512862 -2.999861 0.000000 -0.000000 0.000000 -7.725290 -3.678688 1.999985 2.313510 -1.444741 -0.680791 5.098566 -4.847009 -5.619111 0.000000 -0.000000 0.000000 -4.876018 3.062515 -9.199598 2.062049 -1.259191 13.228936 0.241850 0.661629 -4.120627 4.547798 4.477936 5.655678 3.667843 -2.079187 1.278901 -26.573534 -1.523286 0.649599 -55.622046 -6.245814 17.949359 2.411336 -20.431604 9.725904 -4.018133 -13.909176 8.409184 29.713343 3.332485 7.545505 55.682450 5.104697 13.569281 -11.219946 26.185224 -8.388367 1.025718 9.246970 -7.735477 
0.363667 0.169083 0.990549 87.427535 -0.090657 90.579444 7.283291 5.499378 6.588868 -4.191107 -0.972261 -6.862191 -0.816216 8.430250 -3.018707 0.000000 -0.000000 0.000000 -7.546534 -3.694474 1.965927 2.284725 -1.481315 -0.658840 5.119361 -4.752374 -5.640589 0.000000 -0.000000 0.000000 -4.692309 3.040669 -9.132885 2.009956 -1.231308 13.064147 0.235104 0.670951 -4.055587 4.600759 4.506092 5.559633 3.629298 -2.096147 1.429460 -26.457555 -1.545415 0.691052 -55.775548 -6.239736 17.906637 2.423129 -20.465261 9.866620 -4.027824 -13.791163 8.226456 29.568766 3.351823 7.644897 55.831024 5.225151 13.620787 -11.185836 26.334603 -8.362945 1.084227 9.143261 -7.906138 
0.363833 0.168904 0.990605 87.413447 -0.083953 90.561800 7.263351 5.465204 6.623870 -4.173920 -0.958395 -6.870810 -0.780170 8.435932 -3.028803 0.000000 -0.000000 0.000000 -7.526490 -3.683299 1.981169 2.269714 -1.469088 -0.678318 5.102334 -4.759297 -5.673658 0.000000 -0.000000 0.000000 -4.673931 3.015533 -9.064673 1.981436 -1.211109 12.910728 0.245227 0.671945 -3.996252 4.640493 4.518303 5.487492 3.610792 -2.079315 1.590363 -26.371183 -1.541549 0.720371 -55.926266 -6.241784 17.882875 2.491289 -20.492694 9.911126 -4.042488 -13.727504 8.134876 29.467760 3.378038 7.706611 55.965472 5.301838 13.674188 -11.264358 26.553029 -8.337646 1.121146 9.104928 -8.100423 
0.363771 0.168982 0.990608 87.461308 -0.080764 90.560336 7.257349 5.442847 6.578842 -4.165106 -0.955699 -6.813714 -0.765673 8.429604 -3.033662 0.000000 -0.000000 0.000000 -7.524597 -3.699649 1.987653 2.270342 -1.482935 -0.674120 5.099499 -4.771541 -5.678301 0.000000 -0.000000 0.000000 -4.652812 3.013239 -9.017797 1.971605 -1.238559 12.866334 0.237436 0.672011 -3.993906 4.624705 4.501316 5.495025 3.612468 -2.083394 1.602261 -26.380836 -1.553474 0.715133 -55.922108 -6.240477 17.896093 2.495740 -20.494667 9.905509 -4.050562 -13.711389 8.121882 29.461854 3.395037 7.700590 55.967889 5.286410 13.685212 -11.277421 26.640035 -8.367432 1.114935 9.102879 -8.148764 
0.363588 0.169204 0.990616 87.612730 -0.074355 90.542100 7.252080 5.378685 6.483695 -4.154749 -0.968092 -6.678619 -0.742727 8.368887 -3.044507 0.000000 -0.000000 0.000000 -7.530195 -3.765708 2.033602 2.278119 -1.550045 -0.693048 5.098325 -4.782454 -5.670740 0.000000 -0.000000 0.000000 -4.599820 3.012399 -8.891343 1.932096 -1.349355 12.790022 0.223053 0.676902 -4.006289 4.595078 4.472135 5.487650 3.638182 -2.099022 1.580870 -26.414048 -1.640001 0.767484 -55.909962 -6.250505 17.891960 2.524491 -20.504896 9.862160 -4.011716 -13.675414 8.095117 29.478646 3.495971 7.745850 55.964578 5.242938 13.684800 -11.369628 26.809967 -8.505140 1.090260 9.105238 -8.269701 
0.363683 0.169169 0.990633 87.629670 -0.062398 90.547102 7.246045 5.358951 6.460793 -4.134234 -0.951306 -6.650992 -0.755680 8.358110 -3.047607 0.000000 -0.000000 0.000000 -7.520779 -3.786503 2.021001 2.281247 -1.549769 -0.687322 5.111796 -4.765315 -5.676340 0.000000 -0.000000 0.000000 -4.563927 3.017754 -8.862986 1.913821 -1.365616 12.733016 0.209930 0.676462 -3.986758 4.611846 4.467557 5.447496 3.650495 -2.112343 1.608922 -26.384405 -1.638727 0.752451 -55.959534 -6.240479 17.881586 2.539158 -20.535856 9.848910 -4.110762 -13.643110 8.063401 29.419885 3.485036 7.738233 56.015604 5.271000 13.678865 -11.363994 26.975968 -8.526151 1.143903 9.079822 -8.271437 
0.363724 0.169102 0.990647 87.645486 -0.056110 90.564343 7.245654 5.330150 6.444244 -4.139363 -0.911025 -6.666028 -0.795597 8.321334 -3.038414 0.000000 -0.000000 0.000000 -7.509654 -3.784551 2.001975 2.279054 -1.555119 -0.706004 5.094643 -4.751907 -5.677921 0.000000 -0.000000 0.000000 -4.545168 3.012881 -8.886089 1.904485 -1.370289 12.738659 0.200650 0.658417 -3.946031 4.640977 4.514244 5.354826 3.622109 -2.127377 1.624809 -26.312973 -1.635717 0.720434 -56.049921 -6.262571 17.868336 2.568392 -20.544842 9.883340 -4.202466 -13.653101 8.094936 29.357291 3.476895 7.725316 56.086337 5.339331 13.657597 -11.382232 27.138967 -8.511852 1.175888 9.117478 -8.193422 
0.364128 0.168777 0.990732 87.454503 -0.064490 90.562600 7.253729 5.415914 6.584452 -4.170216 -0.891869 -6.795004 -0.795551 8.380538 -3.026223 0.000000 -0.000000 0.000000 -7.496356 -3.689295 1.977781 2.248941 -1.494657 -0.679897 5.097676 -4.708379 -5.678277 0.000000 -0.000000 0.000000 -4.601167 3.034822 -8.981016 1.928612 -1.238907 12.776789 0.232092 0.692074 -3.906169 4.632763 4.566712 5.389182 3.621613 -2.100009 1.520370 -26.250723 -1.659579 0.728802 -56.110531 -6.279335 17.849045 2.569939 -20.469158 9.937181 -4.253144 -13.687275 8.130661 29.316730 3.473912 7.716671 56.176682 5.335896 13.627194 -11.409941 27.244632 -8.514709 1.204054 9.142759 -8.267792 
0.364282 0.168705 0.990783 87.385571 -0.082647 90.568765 7.236532 5.445854 6.635021 -4.180947 -0.888969 -6.846043 -0.771193 8.413854 -3.043605 0.000000 -0.000000 0.000000 -7.512980 -3.649568 1.971626 2.242340 -1.498525 -0.680598 5.115863 -4.690417 -5.667608 0.000000 -0.000000 0.000000 -4.646892 3.048302 -9.010668 1.938370 -1.177752 12.805281 0.246883 0.702548 -3.929543 4.647790 4.536767 5.390965 3.633989 -2.081480 1.571553 -26.225878 -1.678841 0.763960 -56.145156 -6.279446 17.849941 2.576465 -20.462655 9.930964 -4.258549 -13.690067 8.107648 29.280543 3.512314 7.749606 56.246533 5.332374 13.635127 -11.449305 27.312173 -8.574627 1.206043 9.151907 -8.378307 
0.364355 0.168703 0.990771 87.386236 -0.089719 90.572975 7.231047 5.428933 6.648270 -4.186044 -0.870585 -6.863488 -0.755574 8.394968 -3.044842 0.000000 -0.000000 0.000000 -7.521899 -3.650857 1.969252 2.244212 -1.503782 -0.669003 5.127094 -4.693158 -5.675573 0.000000 -0.000000 0.000000 -4.668602 3.047381 -8.995369 1.925667 -1.178716 12.778593 0.258056 0.718111 -3.911887 4.672629 4.540895 5.263975 3.622669 -2.128512 1.841041 -26.231644 -1.673212 0.809595 -56.136534 -6.337663 17.816434 2.587922 -20.439538 9.992631 -4.230985 -13.753125 8.072320 29.334372 3.533032 7.790498 56.211694 5.366706 13.671144 -11.504558 27.369175 -8.590237 1.186663 9.177080 -8.499227 
0.364466 0.168712 0.990749 87.407760 -0.093211 90.580199 7.225225 5.435222 6.627459 -4.182521 -0.877349 -6.831069 -0.759522 8.387543 -3.050324 0.000000 -0.000000 0.000000 -7.523571 -3.669620 1.976878 2.238249 -1.504078 -0.679656 5.135539 -4.689442 -5.672995 0.000000 -0.000000 0.000000 -4.669743 3.045392 -8.978450 1.919122 -1.195865 12.751808 0.253045 0.709259 -3.914279 4.648479 4.544410 5.314958 3.609696 -2.073718 1.747725 -26.225204 -1.645981 0.774646 -56.119152 -6.306821 17.830452 2.560883 -20.452344 10.017820 -4.210849 -13.709472 8.088134 29.304138 3.483263 7.743514 56.231866 5.385658 13.669916 -11.433794 27.392960 -8.505835 1.191229 9.147362 -8.433804 
